<svg width="154" height="40" viewBox="0 0 154 40" fill="none" xmlns="http://www.w3.org/2000/svg" role="img" aria-labelledby="title"><title id="title">Nihar Manchikalapudi LinkedIn</title><metadata id="niharm-profile-owner">owner=Nihar Manchikalapudi; linkedin=https://www.linkedin.com/in/nihar-manchikalapudi-3bba1b320/</metadata><rect x=".5" y=".5" width="153" height="39" rx="19.5" fill="#111111" stroke="#f4f4f1" stroke-opacity=".18"/><rect x="20" y="13" width="16" height="16" rx="3" fill="#d8d8d2"/><path d="M24 19h2.2v7H24v-7Zm1.1-3.7a1.25 1.25 0 1 1 0 2.5 1.25 1.25 0 0 1 0-2.5Zm3.3 3.7h2.1v1c.4-.7 1.1-1.2 2.2-1.2 1.8 0 3.1 1.1 3.1 3.5V26h-2.2v-3.4c0-1.1-.5-1.7-1.4-1.7-.9 0-1.6.6-1.6 1.9V26h-2.2v-7Z" fill="#111111"/><text x="50" y="25" fill="#f4f4f1" font-family="Inter, ui-sans-serif, system-ui, sans-serif" font-size="14" font-weight="800">LinkedIn</text></svg>