<svg width="1200" height="86" viewBox="0 0 1200 86" fill="none" xmlns="http://www.w3.org/2000/svg" role="img" aria-labelledby="title">
  <title id="title">Toolbox</title>
  <rect width="1200" height="86" rx="12" fill="#080808"/>
  <rect x="1" y="1" width="1198" height="84" rx="11" stroke="#f4f4f1" stroke-opacity=".12"/>
  <g fill="#111111" stroke="#f4f4f1" stroke-opacity=".18">
    <rect x="88" y="27" width="88" height="32" rx="16"/><rect x="192" y="27" width="92" height="32" rx="16"/><rect x="300" y="27" width="116" height="32" rx="16"/><rect x="432" y="27" width="90" height="32" rx="16"/><rect x="538" y="27" width="100" height="32" rx="16"/><rect x="654" y="27" width="112" height="32" rx="16"/><rect x="782" y="27" width="94" height="32" rx="16"/><rect x="892" y="27" width="88" height="32" rx="16"/><rect x="996" y="27" width="116" height="32" rx="16"/>
  </g>
  <g fill="#d8d8d2" font-family="Inter, ui-sans-serif, system-ui, sans-serif" font-size="13" font-weight="800" text-anchor="middle">
    <text x="132" y="48">Swift</text><text x="238" y="48">C++</text><text x="358" y="48">TypeScript</text><text x="477" y="48">React</text><text x="588" y="48">SwiftUI</text><text x="710" y="48">Robotics</text><text x="829" y="48">Vercel</text><text x="936" y="48">Figma</text><text x="1054" y="48">Onshape</text>
  </g>
</svg>
